HIERARCHY
ROOT Hips
{
	OFFSET 0.00000 0.00000 0.00000
	CHANNELS 6 Xposition Yposition Zposition Zrotation Yrotation Xrotation 
	JOINT LHipJoint
	{
		OFFSET 0 0 0
		CHANNELS 3 Zrotation Yrotation Xrotation
		JOINT LeftHip
		{
			OFFSET 1.38615 -1.80049 0.80104
			CHANNELS 3 Zrotation Yrotation Xrotation
			JOINT LeftKnee
			{
				OFFSET 2.50172 -6.87341 0.00000
				CHANNELS 3 Zrotation Yrotation Xrotation
				JOINT LeftAnkle
				{
					OFFSET 2.67523 -7.35014 0.00000
					CHANNELS 3 Zrotation Yrotation Xrotation
					JOINT LeftToe
					{
						OFFSET 0.17446 -0.47932 2.13155
						CHANNELS 3 Zrotation Yrotation Xrotation
						End Site
						{
							OFFSET 0.00000 -0.00000 1.10023
						}
					}
				}
			}
		}
	}
	JOINT RHipJoint
	{
		OFFSET 0 0 0
		CHANNELS 3 Zrotation Yrotation Xrotation
		JOINT RightHip
		{
			OFFSET -1.18047 -1.80049 0.80104
			CHANNELS 3 Zrotation Yrotation Xrotation
			JOINT RightKnee
			{
				OFFSET -2.59789 -7.13765 0.00000
				CHANNELS 3 Zrotation Yrotation Xrotation
				JOINT RightAnkle
				{
					OFFSET -2.62125 -7.20183 0.00000
					CHANNELS 3 Zrotation Yrotation Xrotation
					JOINT RightToe
					{
						OFFSET -0.31287 -0.85960 2.07814
						CHANNELS 3 Zrotation Yrotation Xrotation
						End Site
						{
							OFFSET -0.00000 -0.00000 1.11766
						}
					}
				}
			}
		}
	}
	JOINT lowerback
	{
		OFFSET 0 0 0
		CHANNELS 3 Zrotation Yrotation Xrotation
		JOINT Chest
		{
			OFFSET -0.01587 2.16157 -0.12309
			CHANNELS 3 Zrotation Yrotation Xrotation
			JOINT Chest2
			{
				OFFSET 0.04727 2.16674 -0.03569
				CHANNELS 3 Zrotation Yrotation Xrotation
				JOINT lowerneck
				{
					OFFSET 0 0 0
					CHANNELS 3 Zrotation Yrotation Xrotation
					JOINT Neck
					{
						OFFSET -0.08586 1.60335 0.32783
						CHANNELS 3 Zrotation Yrotation Xrotation
						JOINT Head
						{
							OFFSET 0.07583 1.65857 -0.31618
							CHANNELS 3 Zrotation Yrotation Xrotation
							End Site
							{
								OFFSET 0.03386 1.69434 -0.14584
							}
						}
					}
				}
				JOINT LeftCollar
				{
					OFFSET 0 0 0
					CHANNELS 3 Zrotation Yrotation Xrotation
					JOINT LeftShoulder
					{
						OFFSET 3.17393 1.01901 -0.52897
CHANNELS 3 Zrotation Xrotation Yrotation
						JOINT LeftElbow
						{
OFFSET 0 -5.252870 -0.000000
CHANNELS 3 Zrotation Xrotation Yrotation
							JOINT LeftWrist
							{
OFFSET 0 -3.510140 0.000000
CHANNELS 3 Zrotation Xrotation Yrotation
								JOINT lhand
								{
									OFFSET 0 0 0
CHANNELS 3 Zrotation Xrotation Yrotation
									JOINT LFingers
									{
OFFSET 0 -0.706180 -0.000000
CHANNELS 3 Zrotation Xrotation Yrotation
										End Site
										{
OFFSET 0 -0.569340 -0.000000
										}
									}
								}
								JOINT LThumb
								{
OFFSET 0 0.000000 0.000000
CHANNELS 3 Zrotation Xrotation Yrotation
									End Site
									{
OFFSET 0 -0.578030 0.578030
									}
								}
							}
						}
					}
				}
				JOINT RightCollar
				{
					OFFSET 0 0 0
					CHANNELS 3 Zrotation Yrotation Xrotation
					JOINT RightShoulder
					{
						OFFSET -2.99471 1.26495 -0.61125
CHANNELS 3 Zrotation Xrotation Yrotation
						JOINT RightElbow
						{
OFFSET 0 -5.287210 -0.000000
CHANNELS 3 Zrotation Xrotation Yrotation
							JOINT RightWrist
							{
OFFSET 0 -3.505440 0.000000
CHANNELS 3 Zrotation Xrotation Yrotation
								JOINT rhand
								{
									OFFSET 0 0 0
CHANNELS 3 Zrotation Xrotation Yrotation
									JOINT RFingers
									{
OFFSET 0 -0.885000 -0.000000
CHANNELS 3 Zrotation Xrotation Yrotation
										End Site
										{
OFFSET 0 -0.713510 -0.000000
										}
									}
								}
								JOINT RThumb
								{
OFFSET 0 0.000000 0.000000
CHANNELS 3 Zrotation Xrotation Yrotation
									End Site
									{
OFFSET 0 -0.724400 0.724400
									}
								}
							}
						}
					}
				}
			}
		}
	}
}
MOTION
Frames: 5
Frame Time: 0.008333333333333333
11.881367 17.106181 10.087788 335.502907 -78.171008 -317.274053 0.000000 0.000000 0.000000 -4.193002 -9.617117 -57.835698 6.923481 15.266882 48.583849 -0.193139 -12.333712 -5.723115 0.009018 0.414987 1.140387 0.000000 0.000000 0.000000 11.085187 5.366228 -52.969497 -5.995402 -14.423871 44.963241 0.192820 -10.214935 -10.820699 -1.918126 8.692179 -24.838003 -3.265424 0.051885 28.608045 -0.417500 -1.571157 9.206741 1.949134 -1.072477 -5.381170 -11.484030 -0.330099 -18.633785 8.173456 0.502854 25.795980 5.052971 0.028344 11.407559 0.000000 0.000000 0.000000 5.458710 -13.442390 -41.652795 49.915503 -52.959769 26.107128 19.381836 19.076406 -31.031410 0.000000 0.000000 0.000000 -7.125000 0.000000 0.000000 -14.656689 61.916674 6.103625 0.000000 0.000000 0.000000 -79.080456 -31.932356 -50.916386 -77.455644 -59.396644 -49.158295 -21.885599 -73.769345 22.479922 0.000000 0.000000 0.000000 7.125000 0.000000 0.000000 7.437672 53.861088 -1.627372
11.766258 17.164677 10.085297 335.915040 -78.002126 -317.931239 0.000000 0.000000 0.000000 -4.329792 -9.554311 -56.773475 6.790057 15.152117 48.075085 -0.173024 -12.525798 -6.243602 0.013575 0.743980 2.044727 0.000000 0.000000 0.000000 11.202077 5.367636 -52.095104 -5.934836 -14.364791 44.719450 0.204716 -10.513279 -11.129702 -1.841356 8.526959 -24.326881 -3.219813 0.027598 28.451892 -0.427624 -1.566131 9.012344 1.909790 -1.055702 -5.526731 -11.436379 -0.521354 -18.663555 8.389400 0.153410 25.879604 5.082723 -0.099709 11.485578 0.000000 0.000000 0.000000 5.540248 -13.054699 -41.568773 49.040107 -52.598916 25.410123 18.896074 17.949814 -31.476894 0.000000 0.000000 0.000000 -7.125000 0.000000 0.000000 -15.540662 62.224545 6.596512 0.000000 0.000000 0.000000 -78.451756 -31.829978 -50.295739 -76.709489 -59.321128 -48.516383 -23.091577 -73.037793 22.249329 0.000000 0.000000 0.000000 7.125000 0.000000 0.000000 6.116474 53.852536 -1.335573
11.650645 17.208142 10.086403 336.668481 -77.928735 -318.854608 0.000000 0.000000 0.000000 -4.582609 -9.500691 -55.818241 6.673567 15.050466 47.628229 -0.148090 -12.701369 -6.803242 0.009174 0.534190 1.468050 0.000000 0.000000 0.000000 11.280252 5.280337 -51.327342 -5.878515 -14.309481 44.492016 0.221084 -10.796852 -11.314611 -1.926241 8.706055 -24.883114 -3.159260 0.021979 28.062281 -0.524810 -1.533907 8.894779 1.750723 -1.030912 -5.479238 -11.315750 -0.717839 -18.669435 8.593512 -0.217874 25.842847 5.086297 -0.227560 11.516545 0.000000 0.000000 0.000000 5.738233 -12.763383 -41.621412 48.261172 -52.267829 24.792676 18.158254 16.549100 -31.846013 0.000000 0.000000 0.000000 -7.125000 0.000000 0.000000 -16.655045 62.391330 7.147287 0.000000 0.000000 0.000000 -77.824575 -31.613562 -49.766019 -76.221333 -59.270165 -48.096577 -24.617856 -72.534049 21.816278 0.000000 0.000000 0.000000 7.125000 0.000000 0.000000 4.402642 53.690136 -0.946938
11.534238 17.240908 10.089028 337.707795 -77.861383 -320.032750 0.000000 0.000000 0.000000 -4.892155 -9.481232 -54.934785 6.573216 14.961615 47.240967 -0.125939 -12.826226 -7.253810 0.000849 0.180385 0.495497 0.000000 0.000000 0.000000 11.327329 5.154611 -50.574050 -5.827483 -14.259034 44.285275 0.253607 -11.223763 -11.441041 -2.123252 9.114187 -26.156012 -3.107924 0.002814 27.598915 -0.648522 -1.520127 8.787532 1.571547 -1.015807 -5.383927 -11.230422 -0.891841 -18.638729 8.895013 -0.577428 25.762472 5.132174 -0.340967 11.522507 0.000000 0.000000 0.000000 5.962699 -12.461056 -41.655558 47.522322 -51.944599 24.209515 17.175696 14.971421 -32.142261 0.000000 0.000000 0.000000 -7.125000 0.000000 0.000000 -17.990190 62.422420 7.751860 0.000000 0.000000 0.000000 -77.178106 -31.351154 -49.209538 -75.877156 -59.232553 -47.800760 -25.355468 -72.381018 21.630179 0.000000 0.000000 0.000000 7.125000 0.000000 0.000000 3.581833 53.635822 -0.764790
11.416602 17.272435 10.089796 338.775078 -77.695473 -321.272447 0.000000 0.000000 0.000000 -5.152317 -9.500990 -54.054021 6.485149 14.882518 46.899181 -0.111694 -12.880288 -7.508938 0.001348 0.077335 0.212360 0.000000 0.000000 0.000000 11.366843 5.102639 -49.728139 -5.784513 -14.216210 44.110469 0.313809 -11.959339 -11.603324 -2.334961 9.531253 -27.471819 -3.126340 -0.056897 27.333879 -0.695098 -1.572738 8.567896 1.544590 -1.025833 -5.499726 -11.297983 -1.021326 -18.582245 9.371180 -0.889701 25.789762 5.282503 -0.432377 11.559233 0.000000 0.000000 0.000000 6.071904 -11.942632 -41.465032 46.785473 -51.613471 23.630260 16.064685 13.469179 -32.432866 0.000000 0.000000 0.000000 -7.125000 0.000000 0.000000 -19.463750 62.412626 8.406990 0.000000 0.000000 0.000000 -76.527670 -31.178522 -48.485120 -75.443020 -59.183812 -47.427783 -24.370741 -72.523816 22.156979 0.000000 0.000000 0.000000 7.125000 0.000000 0.000000 4.762328 54.004235 -1.056098
